<svg xmlns="http://www.w3.org/2000/svg" version="1.1" xmlns:xlink="http://www.w3.org/1999/xlink" xmlns:svgjs="http://svgjs.dev/svgjs" width="1000" height="803" viewBox="0 0 1000 803"><g transform="matrix(1,0,0,1,0,0)"><svg viewBox="0 0 448 360" data-background-color="#ff7e4f" preserveAspectRatio="xMidYMid meet" height="803" width="1000" xmlns="http://www.w3.org/2000/svg" xmlns:xlink="http://www.w3.org/1999/xlink"><g id="tight-bounds" transform="matrix(1,0,0,1,0,0)"><svg viewBox="0 0 448 360" height="360" width="448"><g><svg></svg></g><g><svg viewBox="0 0 448 360" height="360" width="448"><g><path xmlns="http://www.w3.org/2000/svg" d="M193.855 44.683c1.378 0 2.494 1.116 2.495 2.494 0 1.378-1.116 2.494-2.495 2.495h-23.846l-17.167 17.167c-0.973 0.973-2.551 0.973-3.53 0-0.973-0.973-0.973-2.551 0-3.529l13.644-13.645h-40.378c-11.518 0-19.151 2.688-23.815 8.113-4.739 5.519-6.66 14.056-6.66 25.63 0 0.069 0 0.137-0.006 0.206l0.212 36.692 14.692-14.692c0.973-0.973 2.551-0.973 3.53 0 0.973 0.973 0.973 2.551 0 3.53l-18.178 18.178c0.206 35.832 0.193 71.358-0.013 107.19 25.486 25.2 50.617 50.312 75.811 75.791h25.38c1.378 0 2.494 1.116 2.495 2.495 0 1.378-1.116 2.494-2.495 2.494h-20.448l25.942 26.241 0.006-0.006c8.188 8.188 15.577 12.859 22.824 13.413 7.146 0.543 14.442-2.956 22.586-11.093l28.555-28.555h-20.722c-1.378 0-2.494-1.116-2.495-2.494 0-1.378 1.116-2.494 2.495-2.495h25.711l16.625-16.625c0.973-0.973 2.551-0.973 3.529 0 0.973 0.973 0.973 2.551 0 3.53l-13.101 13.102h40.377c11.518 0 19.151-2.688 23.815-8.113 4.739-5.519 6.66-14.056 6.66-25.63h0.013l-0.212-36.898-16.014 16.014c-0.973 0.973-2.551 0.973-3.53 0-0.973-0.973-0.973-2.551 0-3.53l19.5-19.5c-0.206-35.832-0.193-71.358 0.013-107.19-25.486-25.2-50.617-50.312-75.811-75.791h-26.147c-1.378 0-2.494-1.116-2.495-2.495 0-1.378 1.116-2.494 2.495-2.494h21.215l-25.824-26.123c-0.044-0.037-0.081-0.075-0.124-0.112-8.188-8.188-15.577-12.859-22.824-13.413-7.146-0.543-14.442 2.956-22.586 11.093l-28.555 28.555h18.858zM122.578 44.683h45.367l32.078-32.078c9.248-9.248 17.81-13.195 26.484-12.534 8.568 0.649 16.956 5.824 25.985 14.854 0.05 0.05 0.094 0.094 0.137 0.143l29.278 29.615h43.508c13.071 0 21.919 3.268 27.594 9.871 5.6 6.517 7.864 16.101 7.864 28.867 0 0.081-0.006 0.156-0.012 0.23l-0.225 39.742 28.43 28.112 0.006-0.006c9.03 9.03 14.206 17.411 14.854 25.985 0.661 8.674-3.293 17.236-12.534 26.484l-30.768 30.768 0.237 41.843h0.012c0 12.765-2.27 22.35-7.864 28.867-5.675 6.604-14.524 9.872-27.594 9.871h-45.366l-32.078 32.078c-9.248 9.248-17.81 13.195-26.484 12.534-8.568-0.649-16.956-5.824-25.985-14.854l0.006-0.006-29.421-29.758h-43.509c-13.071 0-21.919-3.268-27.594-9.872-5.6-6.517-7.864-16.101-7.863-28.866h0.012l0.231-39.972-28.293-27.969c-0.05-0.044-0.1-0.087-0.143-0.137-9.03-9.03-14.206-17.411-14.854-25.985-0.661-8.674 3.293-17.236 12.534-26.484l30.768-30.768-0.237-41.607c-0.006-0.075-0.012-0.156-0.012-0.23 0-12.765 2.27-22.35 7.864-28.867 5.675-6.604 14.524-9.872 27.594-9.871zM87.682 179.997l-0.274-47.724-27.276 27.276c-8.138 8.138-11.636 15.44-11.094 22.587 0.549 7.246 5.226 14.642 13.413 22.823 0.037 0.037 0.081 0.081 0.113 0.125l24.837 24.551 0.281-49.644zM92.303 241.483l-0.2 35.09h0.013c0 11.58 1.921 20.117 6.66 25.63 4.664 5.432 12.297 8.113 23.815 8.113h38.576l-33.55-33.936-35.308-34.903zM325.415 49.672h-38.575l33.549 33.936 35.308 34.902 0.2-34.884c-0.006-0.069-0.006-0.137-0.007-0.205 0-11.58-1.921-20.117-6.66-25.63-4.664-5.432-12.297-8.113-23.815-8.113zM360.599 130.352l-0.281 49.645 0.274 47.724 27.276-27.276c8.138-8.138 11.636-15.44 11.094-22.587-0.549-7.252-5.226-14.642-13.413-22.824l0.006-0.006-24.956-24.669z" fill="#fcebeb" fill-rule="nonzero" stroke="none" stroke-width="1" stroke-linecap="butt" stroke-linejoin="miter" stroke-miterlimit="10" stroke-dasharray="" stroke-dashoffset="0" font-family="none" font-weight="none" font-size="none" text-anchor="none" style="mix-blend-mode: normal" data-fill-palette-color="tertiary"></path></g><g transform="matrix(1,0,0,1,112,166.96610618999628)"><svg viewBox="0 0 224 26.067787620007426" height="26.067787620007426" width="224"><g><svg viewBox="0 0 224 26.067787620007426" height="26.067787620007426" width="224"><g><svg viewBox="0 0 224 26.067787620007426" height="26.067787620007426" width="224"><g><svg viewBox="0 0 224 26.067787620007426" height="26.067787620007426" width="224"><g><svg viewBox="0 0 224 26.067787620007426" height="26.067787620007426" width="224"><g><svg viewBox="0 0 224 26.067787620007426" height="26.067787620007426" width="224"><g transform="matrix(1,0,0,1,0,0)"><svg width="224" viewBox="1.2000000476837158 -41.939998626708984 460.239990234375 53.55999755859375" height="26.067787620007426" data-palette-color="#fcebeb"><path d="M1.2 0L13.43-37.35 19.12-37.35 32.18 0 27.76 0 24.05-10.96 9.01-10.96 5.49 0 1.2 0ZM10.13-14.45L22.88-14.45 16.28-34.06 15.53-31.27 10.13-14.45ZM39.67 0L39.62-41.5 43.65-41.85 43.65 0 39.67 0ZM55.34 0L55.34-41.46 59.39-41.89 59.39-16.7Q60.37-16.5 61.75-17.7 63.13-18.9 64.2-19.98 65.28-21.07 66.43-22.36L66.43-22.36Q70.55-27.12 71.85-29.05L71.85-29.05 76.68-29.05Q76.14-27.83 74.21-25.59L74.21-25.59 70.94-21.9Q68.28-19.04 66.68-17.68 65.08-16.31 64.57-16.11L64.57-16.11 64.57-15.87 65.3-15.5Q66.89-14.75 69.45-11.47L69.45-11.47 78.56 0 73.43 0 67.23-8.13Q62.93-13.75 60.66-13.94L60.66-13.94 60.13-13.99Q59.88-14.01 59.69-14 59.49-13.99 59.39-13.99L59.39-13.99 59.39 0 55.34 0ZM106.07-5.03L107.27-1.54Q102.21 0.49 96.11 0.49L96.11 0.49Q92.57 0.49 90.1-0.24L90.1-0.24Q86.17-1.37 84.88-4.88L84.88-4.88Q83.68-8.18 83.68-14.65L83.68-14.65 83.68-15.89Q83.68-23.63 86.91-26.76L86.91-26.76Q89.81-29.54 96.6-29.54L96.6-29.54Q103.22-29.54 105.63-26.27L105.63-26.27Q106.8-24.68 107.18-22.42 107.56-20.17 107.56-18.12L107.56-18.12Q107.56-14.92 107.41-13.16L107.41-13.16Q103.97-13.01 101.24-13.01L101.24-13.01Q101.24-13.01 97.31-13.01L97.31-13.01Q91.15-13.01 87.83-13.55L87.83-13.55Q87.83-7.93 89.25-5.71L89.25-5.71Q90.98-3 96.16-3 101.34-3 106.07-5.03L106.07-5.03ZM87.83-16.41L103.43-16.41 103.43-18.75Q103.43-22.58 101.95-24.22L101.95-24.22Q100.29-26.05 96.21-26.05L96.21-26.05Q91.33-26.05 89.54-23.93L89.54-23.93Q87.83-21.9 87.83-16.41L87.83-16.41ZM130.61-25.73L130.61-25.73Q126.63-25.73 121.91-22.92L121.91-22.92 121.91 0 117.86 0 117.86-29.05 121.43-29.05 121.82-26.05Q126.09-29.54 131.39-29.54L131.39-29.54Q134.41-29.54 136.16-28.67 137.91-27.81 138.69-25.83L138.69-25.83Q144.08-29.54 148.94-29.54L148.94-29.54Q153.53-29.54 155.31-27.44L155.31-27.44Q157.02-25.42 157.02-20.24L157.02-20.24 157.02 0 152.92 0 152.92-19.48Q152.92-23 152.24-24.01 151.55-25.02 150.61-25.38 149.67-25.73 148.42-25.73 147.16-25.73 146.05-25.5 144.94-25.27 143.79-24.88L143.79-24.88Q141.47-24.07 139.35-22.83L139.35-22.83Q139.47-21.36 139.47-20.24L139.47-20.24 139.47 0 135.37 0 135.37-19.48Q135.37-23 134.68-24.01 134-25.02 133.06-25.38 132.12-25.73 130.61-25.73ZM166.05 10.21L167.15 7.03Q168.93 7.67 170.07 7.67 171.2 7.67 171.56 7.6 171.91 7.54 172.28 7.35L172.28 7.35Q173.13 6.88 173.55 5.83L173.55 5.83Q174.57 3.34 175.33 0.37L175.33 0.37 164.12-29.05 168.64-29.05 176.21-7.64 177.36-3.88 178.41-7.67 185.09-29.05 189.34-29.05 177.09 6.88Q175.74 11.08 170.89 11.08L170.89 11.08Q167.81 11.08 166.05 10.21L166.05 10.21ZM228.33-4.59L229.55-1.29Q226.15 0.49 220.25 0.49L220.25 0.49Q216.75 0.49 215.12-0.05L215.12-0.05Q210.94-1.46 209.65-4.86L209.65-4.86Q208.75-7.23 208.6-9.96 208.45-12.7 208.45-14.58 208.45-16.46 208.55-18.25 208.65-20.04 209.03-21.7 209.41-23.36 210.19-24.79 210.97-26.22 212.31-27.29L212.31-27.29Q215.22-29.54 220.66-29.54L220.66-29.54Q224.67-29.54 228.03-28.37L228.03-28.37Q228.94-28.08 229.4-27.81L229.4-27.81 228.18-24.19Q223.49-26 220.5-26 217.51-26 216.11-25.32 214.7-24.63 213.92-23.24L213.92-23.24Q212.6-20.85 212.6-14.45L212.6-14.45Q212.6-11.89 212.78-9.78 212.95-7.67 213.63-6.15L213.63-6.15Q215.07-3.03 219.57-3.03 224.08-3.03 228.33-4.59L228.33-4.59ZM252.27-25.76L252.27-25.76Q247.42-25.76 242.63-22.95L242.63-22.95 242.63 0 238.58 0 238.58-41.55 242.53-41.94 242.53-26.05Q245.05-28.2 249.08-29.15L249.08-29.15Q250.69-29.54 252.89-29.54 255.08-29.54 256.74-29.04 258.4-28.54 259.38-27.44L259.38-27.44Q261.14-25.46 261.14-20.24L261.14-20.24 261.14 0 257.04 0 257.04-19.51Q257.04-23.02 256.35-24.04 255.67-25.05 254.73-25.4 253.79-25.76 252.27-25.76ZM294.09-19.41L294.09-10.3Q294.09-5.44 294.56-0.2L294.56-0.2 290.94 0.1 290.33-3.3Q287.23-0.81 282.13 0.17L282.13 0.17Q280.47 0.49 279.18 0.49 277.88 0.49 276.89 0.37 275.91 0.24 274.99-0.11 274.07-0.46 273.29-1.1 272.51-1.73 271.93-2.78L271.93-2.78Q270.68-5 270.68-8.12 270.68-11.23 271.13-12.95 271.58-14.67 272.63-15.82L272.63-15.82Q274.71-18.09 279.62-18.09 284.52-18.09 290.09-16.24L290.09-16.24 290.09-19.41Q290.09-24.71 285.72-25.68L285.72-25.68Q284.3-26 282.47-26L282.47-26Q278.3-26 273.81-24.34L273.81-24.34 272.9-27.86Q274.15-28.69 279.25-29.35L279.25-29.35Q280.86-29.54 283.12-29.54 285.38-29.54 287.55-29 289.72-28.47 291.16-27.25L291.16-27.25Q294.09-24.83 294.09-19.41L294.09-19.41ZM289.99-13.18L289.99-13.18Q284.28-14.62 279.45-14.62L279.45-14.62Q276.47-14.62 275.49-12.92L275.49-12.92Q274.83-11.72 274.83-9.38 274.83-7.03 275.09-5.98 275.34-4.93 275.93-4.25L275.93-4.25Q277.08-2.95 279.71-2.95L279.71-2.95Q283.84-2.95 287.89-5.08L287.89-5.08Q289.14-5.71 290.14-6.49L290.14-6.49Q289.99-9.13 289.99-13.18ZM306.08 0L306.03-41.5 310.06-41.85 310.06 0 306.08 0ZM322.75 0L322.7-41.5 326.73-41.85 326.73 0 322.75 0ZM360.05-5.03L361.25-1.54Q356.2 0.49 350.09 0.49L350.09 0.49Q346.55 0.49 344.09-0.24L344.09-0.24Q340.16-1.37 338.86-4.88L338.86-4.88Q337.67-8.18 337.67-14.65L337.67-14.65 337.67-15.89Q337.67-23.63 340.89-26.76L340.89-26.76Q343.79-29.54 350.58-29.54L350.58-29.54Q357.2-29.54 359.61-26.27L359.61-26.27Q360.79-24.68 361.16-22.42 361.54-20.17 361.54-18.12L361.54-18.12Q361.54-14.92 361.4-13.16L361.4-13.16Q357.95-13.01 355.22-13.01L355.22-13.01Q355.22-13.01 351.29-13.01L351.29-13.01Q345.14-13.01 341.82-13.55L341.82-13.55Q341.82-7.93 343.23-5.71L343.23-5.71Q344.97-3 350.14-3 355.32-3 360.05-5.03L360.05-5.03ZM341.82-16.41L357.42-16.41 357.42-18.75Q357.42-22.58 355.93-24.22L355.93-24.22Q354.27-26.05 350.19-26.05L350.19-26.05Q345.31-26.05 343.52-23.93L343.52-23.93Q341.82-21.9 341.82-16.41L341.82-16.41ZM385.54-25.73L385.54-25.73Q380.78-25.73 375.85-22.92L375.85-22.92 375.85 0 371.79 0 371.79-29.05 375.36-29.05 375.75-26.05Q378.41-28.22 382.36-29.15L382.36-29.15Q383.98-29.54 386.15-29.54 388.32-29.54 389.98-29.04 391.64-28.54 392.62-27.44L392.62-27.44Q394.4-25.46 394.4-20.24L394.4-20.24 394.4 0 390.3 0 390.3-19.48Q390.3-23 389.62-24.01 388.93-25.02 387.99-25.38 387.05-25.73 385.54-25.73ZM423.79-27.05L423.79-27.05 424.18-29.05 427.7-29.05 427.72-0.54Q427.72 5.74 425.26 8.59L425.26 8.59Q422.62 11.62 416.35 11.62L416.35 11.62Q411.46 11.62 407.68 10.3L407.68 10.3Q406.73 9.99 406.22 9.72L406.22 9.72 407.48 6.27Q407.92 6.42 408.78 6.75 409.63 7.08 410.83 7.4L410.83 7.4Q413.86 8.2 416.38 8.2 418.91 8.2 420.28 7.69 421.64 7.18 422.4 6.1L422.4 6.1Q423.67 4.3 423.67-0.46L423.67-0.46 423.67-2.78Q419.01 0.49 413.81 0.49L413.81 0.49Q407.73 0.49 405.7-3.83L405.7-3.83Q404.53-6.27 404.34-10.01L404.34-10.01Q404.26-11.72 404.26-13.78 404.26-15.84 404.3-17.94 404.34-20.04 404.6-21.83 404.87-23.61 405.45-25.04 406.02-26.46 407.09-27.47L407.09-27.47Q409.32-29.54 413.94-29.54 418.57-29.54 423.79-27.05ZM423.67-6.08L423.67-23.68Q419.28-25.88 415.17-25.88L415.17-25.88Q412.2-25.88 411.24-25.39 410.29-24.9 409.79-24.12 409.29-23.34 408.97-21.97L408.97-21.97Q408.41-19.41 408.41-13.53L408.41-13.53 408.41-12.99Q408.41-7.57 409.76-5.4L409.76-5.4Q411.1-3.17 414.66-3.17L414.66-3.17 415.03-3.17Q418.4-3.17 421.91-5.03L421.91-5.03Q422.91-5.54 423.67-6.08L423.67-6.08ZM459.95-5.03L461.14-1.54Q456.09 0.49 449.99 0.49L449.99 0.49Q446.45 0.49 443.98-0.24L443.98-0.24Q440.05-1.37 438.76-4.88L438.76-4.88Q437.56-8.18 437.56-14.65L437.56-14.65 437.56-15.89Q437.56-23.63 440.78-26.76L440.78-26.76Q443.69-29.54 450.48-29.54L450.48-29.54Q457.09-29.54 459.51-26.27L459.51-26.27Q460.68-24.68 461.06-22.42 461.44-20.17 461.44-18.12L461.44-18.12Q461.44-14.92 461.29-13.16L461.29-13.16Q457.85-13.01 455.11-13.01L455.11-13.01Q455.11-13.01 451.18-13.01L451.18-13.01Q445.03-13.01 441.71-13.55L441.71-13.55Q441.71-7.93 443.13-5.71L443.13-5.71Q444.86-3 450.04-3 455.21-3 459.95-5.03L459.95-5.03ZM441.71-16.41L457.31-16.41 457.31-18.75Q457.31-22.58 455.82-24.22L455.82-24.22Q454.16-26.05 450.08-26.05L450.08-26.05Q445.2-26.05 443.42-23.93L443.42-23.93Q441.71-21.9 441.71-16.41L441.71-16.41Z" opacity="1" transform="matrix(1,0,0,1,0,0)" fill="#fcebeb" class="undefined-text-0" data-fill-palette-color="primary" id="text-0"></path></svg></g></svg></g></svg></g></svg></g></svg></g></svg></g></svg></g></svg></g><defs></defs></svg><rect width="448" height="360" fill="none" stroke="none" visibility="hidden"></rect></g></svg></g></svg>